<?xml version="1.0" standalone="no"?>
<!DOCTYPE svg PUBLIC "-//W3C//DTD SVG 20010904//EN"
 "http://www.w3.org/TR/2001/REC-SVG-20010904/DTD/svg10.dtd">
<svg version="1.0" xmlns="http://www.w3.org/2000/svg"
 width="500.000000pt" height="500.000000pt" viewBox="0 0 500.000000 500.000000"
 preserveAspectRatio="xMidYMid meet">

<g transform="translate(0.000000,500.000000) scale(0.100000,-0.100000)"
fill="#000000" stroke="none">
<path d="M2255 4381 c-166 -45 -281 -108 -398 -220 -112 -108 -181 -216 -227
-361 l-18 -55 -50 -6 c-112 -14 -218 -102 -248 -205 -13 -47 -19 -54 -52 -64
-53 -17 -133 -74 -172 -121 -43 -54 -85 -140 -105 -214 -20 -77 -20 -252 0
-328 30 -117 101 -224 188 -288 l39 -28 2 -93 c4 -148 54 -249 161 -330 66
-50 133 -71 223 -71 66 0 81 4 154 41 l82 42 29 -35 c40 -49 95 -75 159 -75
127 0 180 100 119 223 -11 23 -19 42 -18 44 8 7 160 34 225 40 l73 6 -6 -26
c-12 -45 21 -131 68 -179 55 -57 101 -78 172 -78 107 0 165 51 165 143 0 26
-7 63 -14 82 -9 20 -11 35 -5 35 13 0 146 -76 184 -104 20 -16 42 -53 70 -121
22 -54 47 -103 56 -108 12 -7 60 8 190 60 96 39 210 81 254 93 217 58 373 204
449 419 27 78 30 98 31 211 0 104 -4 138 -23 200 -45 144 -143 280 -253 352
-33 21 -48 37 -44 46 15 39 23 152 16 207 -14 92 -21 114 -59 190 -74 144
-213 247 -384 284 -76 16 -80 18 -122 71 -111 142 -254 243 -424 301 -91 31
-106 33 -257 36 -132 2 -172 0 -230 -16z m373 -67 c197 -40 391 -168 497 -327
35 -53 38 -55 93 -62 215 -27 375 -161 428 -360 23 -86 19 -149 -21 -290 -5
-16 4 -25 42 -45 26 -14 74 -50 107 -80 249 -230 254 -628 9 -861 -52 -49
-120 -97 -127 -87 -2 2 -17 39 -34 83 -26 70 -31 97 -36 210 -3 72 -13 159
-21 195 -23 95 -105 291 -136 322 -38 39 -88 45 -143 19 l-44 -22 -34 21 c-37
22 -69 25 -100 9 -20 -11 -20 -9 -14 34 12 77 82 273 117 329 44 68 88 118
104 118 7 0 40 -14 73 -31 61 -32 87 -33 98 -4 16 40 -104 108 -182 103 -46
-3 -51 -6 -96 -62 -26 -32 -63 -90 -83 -127 -20 -38 -38 -69 -39 -69 -2 0 -19
6 -37 14 -19 7 -78 30 -132 50 l-97 38 32 61 c18 34 56 86 84 115 57 59 74 63
161 35 49 -15 55 -15 69 -1 30 30 9 56 -63 78 -36 11 -79 20 -95 20 -63 0
-175 -110 -234 -232 -22 -45 -33 -57 -57 -62 -56 -11 -81 -6 -112 23 -20 20
-112 65 -270 132 l-240 101 -64 -10 c-128 -21 -249 -108 -318 -227 l-29 -49
-74 -12 c-41 -7 -94 -19 -118 -28 -80 -29 -173 -108 -221 -187 l-21 -37 27
-33 c14 -19 42 -50 61 -70 30 -33 32 -39 22 -59 -7 -12 -10 -35 -7 -50 4 -15
75 -130 160 -256 84 -126 170 -257 190 -290 54 -89 54 -90 129 -58 146 61 188
76 288 103 89 25 286 61 331 61 8 0 45 -25 83 -55 l69 -55 -39 0 c-22 0 -50
-6 -64 -13 -15 -8 -71 -17 -125 -20 -55 -4 -143 -17 -195 -29 -91 -20 -122
-23 -229 -18 -32 2 -59 -4 -79 -15 -31 -18 -62 -71 -62 -105 0 -27 -75 -87
-133 -106 -162 -54 -344 59 -382 236 -11 48 -8 151 4 183 10 25 7 28 -50 58
-69 37 -119 90 -154 165 -57 119 -69 257 -35 389 43 166 139 271 271 293 l44
8 6 57 c8 72 43 127 105 163 39 23 60 28 117 28 l70 1 13 57 c66 287 315 529
609 592 93 19 238 20 333 0z m-539 -779 c17 -46 33 -113 37 -148 l6 -64 -43
-30 c-60 -41 -116 -69 -168 -83 -43 -11 -45 -11 -68 19 -44 57 -109 28 -77
-33 8 -16 14 -36 14 -45 0 -25 -80 -105 -146 -147 -52 -33 -58 -35 -87 -23
-63 25 -207 149 -207 178 1 9 13 30 28 47 63 71 136 108 244 123 50 7 60 5 75
-11 35 -39 85 -9 66 41 -8 23 -6 34 11 62 59 97 113 144 202 179 78 30 79 30
113 -65z m276 -50 c83 -20 158 -38 168 -41 29 -9 19 -21 -25 -28 -49 -8 -264
-55 -283 -62 -9 -4 -16 14 -24 58 -7 35 -14 76 -18 92 -5 24 -3 27 13 22 11
-3 87 -22 169 -41z m345 -120 c0 -2 -5 -26 -11 -53 -9 -46 -13 -50 -51 -61
-47 -15 -84 -51 -93 -92 -5 -22 -12 -29 -31 -29 -20 0 -24 5 -24 33 0 41 19
169 26 176 10 10 184 35 184 26z m201 -50 c3 -3 -1 -38 -9 -80 l-15 -75 -37 0
c-33 0 -41 5 -60 37 -20 35 -21 42 -10 93 7 30 14 58 17 62 3 6 89 -22 114
-37z m-480 -96 c-6 -50 -12 -93 -13 -94 -2 -1 -47 -11 -100 -22 l-98 -19 -4
31 c-12 76 -16 155 -9 155 4 1 58 14 118 30 61 15 111 25 113 20 2 -5 -1 -50
-7 -101z m602 50 c12 -7 23 -12 24 -13 1 -1 -7 -30 -17 -66 -16 -58 -20 -65
-41 -62 -36 4 -40 14 -29 73 18 88 20 90 63 68z m-899 -129 l7 -75 -95 -31
-95 -32 -9 27 c-17 44 -32 94 -30 96 2 1 24 7 49 14 25 7 73 28 105 46 32 18
59 33 60 32 1 -1 5 -36 8 -77z m571 27 c10 -8 59 -115 109 -238 90 -222 91
-224 121 -224 42 0 44 33 7 125 -16 41 -27 82 -24 92 5 22 49 35 71 21 9 -6
36 -60 60 -121 44 -110 57 -128 91 -117 30 10 29 39 -6 125 -40 99 -40 101
-13 126 18 17 23 17 46 4 19 -11 37 -44 70 -127 45 -113 61 -131 97 -111 22
13 19 42 -13 122 -30 75 -30 101 2 117 39 22 59 -2 109 -128 56 -140 80 -265
76 -389 l-3 -87 -205 -83 c-113 -46 -210 -83 -217 -84 -6 0 -24 11 -40 24 -16
13 -75 49 -133 81 -175 95 -373 238 -386 278 -9 28 27 61 58 54 13 -4 73 -36
133 -72 114 -68 134 -75 155 -50 11 13 -8 66 -114 320 -105 249 -126 307 -117
323 10 18 24 29 42 31 3 1 13 -5 24 -12z m165 -113 c0 -28 -15 -25 -23 6 -3
13 0 20 9 20 8 0 14 -10 14 -26z m-1017 -11 c34 -66 34 -66 -54 -103 -70 -29
-82 -31 -95 -18 -13 13 -7 20 46 61 33 26 65 56 72 67 16 25 15 25 31 -7z
m703 7 c14 0 31 -33 74 -142 l19 -46 -73 -1 -73 -1 -7 38 c-3 20 -6 63 -6 94
0 56 9 71 38 62 8 -2 20 -4 28 -4z m435 0 c5 0 9 -4 9 -10 0 -5 -13 -10 -30
-10 -29 0 -38 9 -23 24 4 3 13 4 21 1 7 -3 18 -5 23 -5z m-571 -100 c0 -102 4
-98 -100 -102 l-54 -3 -18 80 c-9 44 -15 81 -13 84 7 7 119 29 153 30 l32 1 0
-90z m-246 -31 c9 -39 16 -77 16 -85 0 -7 -24 -19 -52 -28 -111 -31 -100 -35
-131 45 -17 44 -24 76 -19 81 8 8 141 54 163 57 4 1 14 -31 23 -70z m-576 -33
c19 -1 37 -5 39 -11 1 -5 -23 -24 -55 -42 l-57 -31 -48 72 c-26 40 -47 75 -47
79 0 4 30 -10 66 -30 38 -21 81 -36 102 -37z m338 -55 c13 -35 24 -67 24 -71
0 -3 -29 -18 -65 -32 -72 -29 -65 -32 -113 53 l-32 56 68 31 c37 17 73 30 81
29 7 -1 24 -31 37 -66z m-238 -53 c6 -13 22 -41 36 -64 l25 -40 -54 -27 -54
-26 -33 47 c-19 26 -37 52 -41 59 -5 8 11 23 45 43 29 16 56 30 59 30 3 0 11
-10 17 -22z m946 6 c11 -4 16 -19 16 -51 0 -39 -2 -44 -17 -37 -10 4 -40 9
-68 12 -55 5 -65 13 -65 55 0 26 1 27 59 27 33 0 66 -3 75 -6z m-208 -51 c8
-50 10 -151 3 -157 -2 -2 -25 -6 -50 -9 l-46 -6 -22 72 c-11 40 -24 86 -27
104 -6 30 -4 32 27 36 19 2 51 5 71 5 36 2 37 2 44 -45z m-215 -14 c3 -13 15
-56 27 -96 l20 -71 -67 -15 c-36 -9 -67 -14 -68 -13 -6 6 -70 182 -67 185 6 7
129 40 138 37 6 -1 13 -13 17 -27z m-200 -116 c40 -105 41 -103 -10 -119 -25
-7 -48 -11 -52 -8 -15 9 -91 155 -84 162 12 12 90 41 105 39 8 -1 26 -34 41
-74z m-178 -80 c45 -77 45 -78 24 -89 -12 -7 -36 -15 -53 -18 -29 -7 -32 -4
-77 69 l-46 76 42 19 c23 11 47 20 54 20 6 0 31 -35 56 -77z m807 -223 c75
-39 121 -137 90 -195 -40 -76 -187 -36 -237 65 -30 57 -29 81 3 119 21 25 33
31 65 31 22 0 57 -9 79 -20z m905 -66 c9 -25 16 -47 14 -49 -15 -14 -414 -164
-420 -158 -4 4 -15 25 -24 46 -14 35 -14 38 2 44 10 4 104 42 208 84 105 43
193 78 196 78 4 1 14 -20 24 -45z m-1538 -1 c44 -20 87 -84 87 -129 0 -102
-141 -99 -211 5 -64 95 17 175 124 124z"/>
<path d="M1900 3440 c-11 -11 -20 -28 -20 -38 0 -27 29 -62 51 -62 11 0 22 -7
25 -15 9 -21 67 -19 87 3 10 10 17 28 17 40 0 18 -6 22 -29 22 -32 0 -56 18
-66 50 -8 26 -39 26 -65 0z"/>
<path d="M1553 3250 c-34 -14 -46 -45 -31 -78 10 -21 19 -26 39 -24 14 2 31
-4 39 -12 18 -23 47 -19 65 8 19 28 6 66 -21 66 -9 0 -25 11 -36 25 -21 27
-23 28 -55 15z"/>
<path d="M2574 2225 c-11 -28 5 -62 36 -75 35 -14 60 -1 60 31 0 44 -82 81
-96 44z"/>
<path d="M1957 2173 c-12 -12 -7 -50 7 -63 21 -16 60 -9 64 13 7 34 -49 73
-71 50z"/>
<path d="M890 1415 l0 -185 100 0 100 0 0 35 0 35 -60 0 -60 0 0 40 0 40 60 0
60 0 0 35 0 35 -60 0 -60 0 0 40 0 40 60 0 60 0 0 35 0 35 -100 0 -100 0 0
-185z"/>
<path d="M1470 1589 c-76 -31 -122 -98 -122 -179 1 -105 82 -180 195 -180 49
0 117 15 117 26 0 3 -7 18 -16 35 -12 24 -19 29 -37 23 -35 -12 -97 -6 -123
11 -34 22 -58 76 -50 110 4 15 20 40 36 56 24 24 37 29 77 29 26 0 55 -5 63
-10 11 -7 19 -2 32 23 9 18 17 35 18 39 1 24 -140 37 -190 17z"/>
<path d="M1795 1584 c-45 -23 -66 -45 -86 -89 -43 -94 -7 -204 83 -251 35 -18
131 -18 167 1 129 66 129 270 1 335 -47 24 -123 26 -165 4z m143 -89 c54 -51
33 -163 -35 -185 -67 -23 -123 21 -123 97 0 57 18 93 55 109 37 16 73 9 103
-21z"/>
<path d="M2120 1593 c0 -5 -7 -73 -15 -153 -22 -218 -23 -210 24 -210 l39 0 7
106 c4 58 11 102 16 97 4 -4 23 -51 41 -103 29 -84 36 -95 57 -95 21 0 28 12
60 103 20 56 40 100 44 96 4 -4 7 -28 7 -53 0 -25 3 -70 6 -98 l7 -53 38 0
c46 0 44 -16 24 180 -8 80 -15 155 -15 168 0 19 -5 22 -44 22 l-44 0 -38 -101
c-21 -55 -40 -102 -44 -104 -3 -2 -23 43 -45 101 l-39 104 -43 0 c-24 0 -43
-3 -43 -7z"/>
<path d="M2550 1578 c0 -13 -7 -88 -15 -168 -20 -196 -22 -180 24 -180 l38 0
7 53 c3 28 6 70 6 92 1 77 15 66 52 -38 31 -91 38 -102 59 -102 21 0 28 11 57
95 18 52 37 99 41 103 5 5 12 -39 16 -97 l7 -106 39 0 c47 0 46 -8 24 210 -8
80 -15 148 -15 153 0 4 -19 7 -43 7 l-43 0 -39 -104 c-22 -58 -42 -103 -45
-101 -4 2 -23 49 -44 104 l-38 101 -44 0 c-39 0 -44 -3 -44 -22z"/>
<path d="M2970 1415 l0 -185 105 0 105 0 0 35 0 35 -65 0 -65 0 0 40 0 40 60
0 60 0 0 35 0 35 -60 0 -60 0 0 40 0 40 66 0 65 0 -3 33 -3 32 -102 3 -103 3
0 -186z"/>
<path d="M3240 1415 l0 -185 40 0 39 0 3 72 3 71 54 -71 c55 -72 55 -72 103
-72 26 0 48 3 48 6 0 4 -22 32 -48 63 -67 78 -67 77 -33 108 39 36 48 86 24
133 -22 44 -63 59 -160 59 l-73 1 0 -185z m148 103 c14 -14 16 -47 4 -65 -4
-7 -22 -16 -40 -19 l-32 -6 0 51 c0 49 1 51 28 51 15 0 33 -5 40 -12z"/>
<path d="M3659 1580 c-50 -26 -97 -83 -105 -125 -23 -124 66 -225 199 -225 55
0 107 15 107 31 0 4 -5 20 -12 34 -10 22 -16 25 -42 18 -94 -22 -166 22 -166
102 0 72 55 111 144 102 50 -5 54 -4 65 19 16 36 14 41 -20 53 -49 17 -129 13
-170 -9z"/>
<path d="M3910 1415 l0 -185 105 0 105 0 0 35 0 35 -65 0 -65 0 0 40 0 40 60
0 60 0 0 35 0 35 -61 0 -60 0 3 38 3 37 63 3 62 3 0 34 0 35 -105 0 -105 0 0
-185z"/>
<path d="M1150 1360 l0 -30 70 0 70 0 0 30 0 30 -70 0 -70 0 0 -30z"/>
</g>
</svg>
